<?xml version="1.0" encoding="UTF-8" standalone="no" ?>
<!DOCTYPE svg PUBLIC "-//W3C//DTD SVG 1.1//EN" "http://www.w3.org/Graphics/SVG/1.1/DTD/svg11.dtd">
<svg xmlns="http://www.w3.org/2000/svg" xmlns:xlink="http://www.w3.org/1999/xlink" version="1.1" width="1080" height="1080" viewBox="0 0 1080 1080" xml:space="preserve">
<desc>Created with Fabric.js 5.2.4</desc>
<defs>
</defs>
<g transform="matrix(1 0 0 1 540 540)" id="4d4a622c-1a12-49fd-8307-cf4a101fa0f2"  >
<rect style="stroke: none; stroke-width: 1; stroke-dasharray: none; stroke-linecap: butt; stroke-dashoffset: 0; stroke-linejoin: miter; stroke-miterlimit: 4; fill: rgb(255,255,255); fill-rule: nonzero; opacity: 1; visibility: hidden;" vector-effect="non-scaling-stroke"  x="-540" y="-540" rx="0" ry="0" width="1080" height="1080" />
</g>
<g transform="matrix(1 0 0 1 540 540)" id="646e07d6-dffa-44c6-844e-7b570f32dd33"  >
</g>
<g transform="matrix(1 0 0 1 540 540)" id="f80102e7-353a-4100-bac4-b636c7350d32"  >
<path style="stroke: rgb(0,0,0); stroke-width: 0; stroke-dasharray: none; stroke-linecap: butt; stroke-dashoffset: 0; stroke-linejoin: miter; stroke-miterlimit: 4; fill: rgb(255,71,0); fill-rule: nonzero; opacity: 1;" vector-effect="non-scaling-stroke"  transform=" translate(-224, -256)" d="M 64 32 C 28.7 32 0 60.7 0 96 L 0 416 C 0 451.3 28.7 480 64 480 L 384 480 C 419.3 480 448 451.3 448 416 L 448 96 C 448 60.7 419.3 32 384 32 L 64 32 z M 128 96 L 128 160 L 192 160 L 192 96 L 256 96 L 256 160 L 320 160 L 320 96 L 384 96 L 384 160 L 320 160 L 320 224 L 384 224 L 384 288 L 320 288 L 320 352 L 384 352 L 384 416 L 320 416 L 320 352 L 256 352 L 256 416 L 192 416 L 192 352 L 128 352 L 128 416 L 64 416 L 64 352 L 128 352 L 128 288 L 64 288 L 64 224 L 128 224 L 128 160 L 64 160 L 64 96 L 128 96 z M 192 224 L 256 224 L 256 160 L 192 160 L 192 224 z M 192 288 L 192 224 L 128 224 L 128 288 L 192 288 z M 256 288 L 192 288 L 192 352 L 256 352 L 256 288 z M 256 288 L 320 288 L 320 224 L 256 224 L 256 288 z" stroke-linecap="round" />
</g>
</svg>